<?xml version="1.0" standalone="no"?>
<!DOCTYPE svg PUBLIC "-//W3C//DTD SVG 20010904//EN"
 "http://www.w3.org/TR/2001/REC-SVG-20010904/DTD/svg10.dtd">
<svg version="1.0" xmlns="http://www.w3.org/2000/svg"
 width="391.000000pt" height="514.000000pt" viewBox="0 0 391.000000 514.000000"
 preserveAspectRatio="xMidYMid meet">
<metadata>
Created by potrace 1.16, written by Peter Selinger 2001-2019
</metadata>
<g transform="translate(0.000000,514.000000) scale(0.100000,-0.100000)"
fill="#000000" stroke="none">
<path d="M1920 4812 c0 -4 5 -13 10 -18 6 -6 8 -18 4 -28 -5 -13 -9 -14 -21
-5 -7 7 -28 12 -46 11 -18 -1 -49 3 -70 9 -35 9 -42 8 -75 -17 -24 -19 -34
-23 -29 -11 4 11 2 14 -8 10 -11 -4 -12 -10 -4 -25 8 -16 13 -17 25 -7 11 9
18 9 26 1 8 -8 16 -7 30 1 16 10 23 8 46 -19 15 -18 34 -34 42 -37 40 -14 -12
-4 -65 12 -44 14 -67 16 -85 9 -21 -8 -28 -5 -47 18 -21 27 -23 27 -41 11 -22
-20 -50 -24 -34 -4 15 18 -10 47 -42 47 -14 0 -26 -3 -26 -7 0 -5 -16 -19 -35
-32 l-35 -24 22 -18 c12 -11 36 -19 55 -19 31 0 33 -1 19 -16 -9 -8 -16 -21
-16 -29 0 -11 -9 -11 -52 -1 -55 12 -88 11 -88 -4 0 -5 6 -10 13 -13 6 -2 -10
-14 -37 -27 -30 -15 -62 -42 -88 -74 -22 -28 -53 -67 -70 -87 -17 -19 -41 -64
-54 -100 -12 -35 -32 -91 -44 -124 -18 -50 -21 -73 -16 -138 5 -55 2 -90 -8
-120 -8 -24 -17 -74 -21 -113 -6 -61 -4 -79 19 -144 19 -52 29 -104 33 -170
l6 -96 32 4 c26 3 37 -2 63 -32 18 -20 32 -45 32 -55 0 -19 27 -52 70 -86 33
-26 47 -64 56 -150 l7 -70 13 65 c7 36 19 90 27 120 9 30 23 85 32 121 13 51
26 76 58 111 100 107 122 142 118 187 -2 13 10 42 28 66 17 24 31 47 31 52 0
4 -5 1 -10 -7 -6 -9 -10 -10 -10 -3 0 6 8 18 19 25 10 7 21 23 25 34 6 20 31
35 63 38 6 1 22 10 35 22 13 11 35 28 50 37 71 44 285 69 365 42 39 -13 47
-13 73 0 16 8 33 14 37 13 15 -4 53 13 53 24 0 6 9 3 21 -8 15 -14 20 -15 17
-4 -2 12 11 15 76 12 66 -2 87 -7 134 -33 77 -42 113 -67 140 -98 22 -24 23
-24 17 -4 -5 18 1 15 33 -15 52 -48 60 -65 87 -186 24 -105 43 -306 29 -306
-4 0 -16 8 -26 17 -20 18 -93 29 -83 13 4 -6 1 -10 -4 -10 -6 0 -11 3 -11 8 0
10 -219 3 -257 -9 -26 -8 -33 -17 -37 -42 -6 -42 -4 -67 5 -67 5 0 -3 -11 -16
-25 -14 -13 -25 -34 -25 -46 0 -21 1 -21 18 -6 24 22 32 13 22 -24 l-9 -29 47
2 c44 1 44 2 10 5 -21 2 -38 9 -38 14 0 6 6 9 13 6 6 -2 17 3 24 12 10 14 14
13 33 -12 19 -25 28 -28 68 -25 40 3 48 7 62 33 8 17 16 32 17 34 5 7 43 -32
43 -43 0 -21 15 -33 46 -40 76 -17 28 64 -63 105 -25 11 -63 21 -85 21 -27 0
-36 3 -27 9 33 21 142 -5 175 -42 9 -10 22 -19 27 -19 21 0 -28 41 -72 61 -41
19 -44 22 -25 29 12 5 55 11 96 15 l75 6 7 -32 c3 -17 6 -44 6 -60 0 -47 14
-33 34 34 11 34 27 80 36 102 36 83 60 163 60 201 0 21 9 64 21 94 26 67 29
163 7 202 -8 15 -18 24 -23 20 -4 -4 -4 3 -1 15 5 14 0 40 -13 68 -16 37 -17
45 -5 45 16 0 20 36 4 42 -6 2 3 19 19 38 22 26 30 46 31 75 0 41 -21 237 -27
244 -1 2 -11 -6 -22 -18 l-19 -22 -7 33 c-11 52 -56 146 -73 153 -23 9 -24 0
-2 -25 22 -25 26 -45 10 -55 -6 -4 -8 -28 -5 -58 4 -36 2 -46 -4 -32 -5 11
-12 50 -16 88 -4 37 -11 70 -16 72 -16 11 -20 -16 -10 -72 6 -31 9 -58 7 -60
-2 -2 -16 29 -31 69 -37 100 -37 101 -76 120 -47 23 -58 22 -51 -4 5 -20 3
-21 -11 -10 -9 8 -14 19 -11 27 3 7 0 16 -5 20 -7 4 -19 -10 -29 -33 l-18 -39
-32 58 c-31 58 -31 59 -9 60 18 0 17 2 -9 12 -17 7 -43 24 -58 40 -15 15 -31
27 -36 27 -16 0 -11 -38 6 -48 13 -7 14 -11 4 -17 -9 -5 -24 3 -43 26 l-31 33
25 7 c23 7 22 7 -6 8 -16 1 -37 5 -45 11 -9 5 -19 5 -27 -1 -14 -13 -99 -1
-116 15 -7 7 -21 12 -32 13 -11 0 -51 4 -89 8 -67 8 -69 7 -64 -13 5 -18 0
-17 -44 14 -53 36 -68 41 -68 24 0 -12 -63 -4 -92 12 -10 5 -18 5 -18 0z"/>
<path d="M1830 3431 c-19 -9 -51 -18 -70 -19 -40 -4 -80 -26 -80 -45 0 -9 27
-13 93 -14 50 -2 104 -5 118 -8 31 -7 35 -35 4 -35 -42 0 -122 -30 -145 -55
-31 -33 -21 -32 56 6 86 42 179 51 226 20 l33 -21 -35 6 c-19 3 -40 7 -46 9
-40 12 -294 -72 -267 -88 10 -6 110 -20 131 -18 21 2 36 1 78 -5 36 -5 44 -3
63 21 11 15 21 34 21 41 0 23 23 16 58 -16 19 -17 30 -35 26 -42 -5 -8 0 -9
14 -6 12 4 25 1 28 -4 4 -7 -6 -9 -30 -6 -20 2 -33 1 -28 -3 10 -9 82 -21 82
-14 0 3 -9 23 -20 45 -29 56 -25 58 23 9 24 -24 52 -45 62 -47 16 -3 17 2 12
48 -6 51 -6 52 26 65 45 19 107 107 65 92 -7 -2 -21 0 -32 5 -10 6 -21 6 -25
2 -11 -16 -45 -40 -37 -27 10 18 -15 57 -39 61 -112 15 -166 24 -200 32 -22 5
-57 12 -79 15 -21 3 -41 7 -45 9 -3 2 -22 -3 -41 -13z"/>
<path d="M2050 2405 c-46 -7 -93 -10 -102 -7 -10 2 -25 2 -33 -2 -13 -4 -14
-10 -5 -26 6 -11 14 -19 18 -16 4 3 27 -9 51 -25 24 -16 49 -29 55 -29 6 0 4
5 -4 10 -13 9 -13 10 0 11 34 3 90 -2 112 -10 26 -10 324 -7 349 4 9 3 23 -1
32 -10 13 -12 21 -13 36 -5 11 5 29 10 41 10 11 0 24 8 27 18 4 9 15 23 25 30
10 7 18 18 18 23 0 5 -10 1 -22 -11 -26 -24 -75 -26 -105 -5 -15 11 -24 12
-29 4 -4 -8 -9 -7 -15 2 -7 11 -11 11 -21 -2 -24 -30 -104 -40 -120 -15 -6 8
-8 8 -8 -1 0 -7 -8 -13 -18 -13 -27 0 -123 36 -115 43 3 4 -1 7 -10 7 -9 0
-16 5 -14 11 3 16 -45 17 -143 4z"/>
<path d="M1424 2267 c12 -29 35 -71 49 -95 15 -23 27 -44 27 -47 0 -3 4 -11
10 -18 44 -54 60 -76 60 -82 0 -4 23 -38 50 -76 28 -38 50 -72 50 -76 0 -11
64 -102 73 -103 4 0 17 -9 29 -20 24 -22 38 -26 38 -10 0 6 5 10 11 10 6 0 9
-6 6 -14 -7 -17 2 -25 63 -59 48 -26 110 -40 175 -38 50 1 159 29 163 41 2 6
13 10 25 10 12 0 43 7 69 15 43 13 49 12 57 -2 7 -14 13 -9 30 25 12 23 26 42
31 42 24 0 124 -183 216 -395 42 -97 59 -149 66 -205 5 -41 11 -96 14 -121 6
-43 3 -52 -35 -108 -23 -34 -52 -68 -65 -77 -13 -8 -30 -28 -36 -45 -11 -26
-9 -37 18 -97 35 -77 62 -185 123 -499 l44 -223 391 0 390 0 12 123 c48 476
38 886 -24 1075 -43 129 -158 316 -222 360 -44 30 -140 61 -242 76 -290 45
-287 44 -433 107 -78 33 -146 65 -151 70 -6 5 -24 0 -43 -12 -18 -12 -41 -18
-50 -15 -8 4 -21 2 -28 -4 -10 -8 -17 -7 -26 3 -8 8 -21 12 -31 9 -11 -2 -20
3 -24 13 -5 13 -9 14 -15 3 -7 -10 -9 -10 -9 2 0 13 -1 13 -10 0 -7 -11 -10
-11 -10 -2 0 7 -4 10 -10 7 -5 -3 -10 -1 -10 4 0 6 -4 11 -10 11 -5 0 -10 -8
-10 -17 0 -14 -2 -15 -9 -4 -6 9 -11 10 -15 2 -10 -16 -24 -13 -29 7 -4 14 -5
14 -6 1 -1 -14 -8 -15 -48 -7 -27 5 -67 10 -90 10 -60 2 -145 48 -250 138
-100 85 -312 294 -338 334 -29 44 -36 29 -11 -27z"/>
<path d="M1103 2128 c-16 -18 -62 -80 -101 -138 -133 -198 -151 -215 -312
-308 -80 -46 -202 -119 -271 -162 -136 -85 -258 -154 -356 -202 l-63 -30 0
-248 0 -248 38 -12 c56 -18 124 -65 179 -123 60 -63 167 -225 229 -344 25 -49
61 -115 79 -148 18 -33 40 -84 50 -112 l17 -53 704 0 c507 0 704 3 704 11 0 6
-29 97 -64 203 -35 105 -78 238 -95 296 -18 58 -41 128 -51 155 -11 28 -35 93
-53 145 -62 170 -177 444 -209 495 -17 28 -43 73 -58 100 -39 75 -187 333
-222 390 -17 28 -47 86 -67 130 -31 69 -36 91 -36 158 0 42 -2 77 -6 77 -3 0
-19 -15 -36 -32z"/>
<path d="M2364 1619 c-25 -32 -36 -92 -41 -227 -6 -154 -2 -164 42 -104 16 22
21 46 23 127 4 125 -8 224 -24 204z"/>
<path d="M80 416 c0 -13 -7 -30 -17 -37 -9 -8 -25 -33 -35 -56 -21 -49 -15
-70 26 -93 14 -7 26 -17 26 -22 0 -12 -27 -10 -50 4 -28 18 -33 5 -21 -54 8
-36 9 -54 1 -56 -5 -2 -10 -26 -10 -53 l0 -49 48 0 c41 0 50 4 59 23 6 13 8
36 6 52 -6 26 -4 27 25 23 24 -3 33 0 38 14 3 10 3 22 0 26 -3 5 4 27 15 48
11 21 23 65 26 96 6 55 5 57 -21 64 -14 3 -26 13 -26 20 0 8 -8 18 -17 21 -10
4 -27 17 -38 30 -26 29 -35 29 -35 -1z"/>
</g>
</svg>
